name rise45.9887peak57.8056fall74.9286.mot
datacolumns 19
datarows 29
range 6.71498000000000 6.76164700000000
endheader
time	ground_force1_vx	ground_force1_vy	ground_force1_vz	ground_force1_px	ground_force1_py	ground_force1_pz	ground_force2_vx	ground_force2_vy	ground_force2_vz	ground_force2_px	ground_force2_py	ground_force2_pz	ground_torque1_x	ground_torque1_y	ground_torque1_z	ground_torque2_x	ground_torque2_y	ground_torque2_z	
6.71498000000000	-2.97195400000000	41.23634600000000	-9.52531300000000	0.33076400000000	0.00000000000000	0.05755000000000	-61.06203500000000	825.80366700000002	-58.67566700000000	0.13322900000000	0.00000000000000	-0.10908800000000	0.00000000000000	-7.64694800000000	0.00000000000000	0.00000000000000	-26.11469500000000	0.00000000000000	
6.71664000000000	-3.11871700000000	48.29943000000000	-10.74572600000000	0.33801100000000	0.00000000000000	0.05827600000000	-61.79616000000000	824.10831399999995	-58.48117800000000	0.13235000000000	0.00000000000000	-0.10899300000000	0.00000000000000	-8.70079800000000	0.00000000000000	0.00000000000000	-26.09966200000000	0.00000000000000	
6.71831400000000	-3.16758600000000	55.44047800000000	-11.86661100000000	0.34454900000000	0.00000000000000	0.05894000000000	-62.54439800000000	822.25803499999995	-58.26188200000000	0.13147700000000	0.00000000000000	-0.10889400000000	0.00000000000000	-9.68409500000000	0.00000000000000	0.00000000000000	-26.08533800000000	0.00000000000000	
6.71997600000000	-3.10861000000000	62.56577500000000	-12.86260600000000	0.35048700000000	0.00000000000000	0.05955300000000	-63.30623100000000	820.24927600000001	-58.01737000000000	0.13061000000000	0.00000000000000	-0.10879200000000	0.00000000000000	-10.57398300000000	0.00000000000000	0.00000000000000	-26.07167900000000	0.00000000000000	
6.72164400000000	-2.93610300000000	69.60433999999999	-13.71655300000000	0.35591300000000	0.00000000000000	0.06012200000000	-64.08103800000001	818.07850499999995	-57.74725900000000	0.12975100000000	0.00000000000000	-0.10868500000000	0.00000000000000	-11.35442300000000	0.00000000000000	0.00000000000000	-26.05861700000000	0.00000000000000	
6.72331400000000	-2.64851000000000	76.51009200000000	-14.41964200000000	0.36089500000000	0.00000000000000	0.06065400000000	-64.86809599999999	815.74221799999998	-57.45120400000000	0.12889900000000	0.00000000000000	-0.10857500000000	0.00000000000000	-12.01647700000000	0.00000000000000	0.00000000000000	-26.04606400000000	0.00000000000000	
6.72497300000000	-2.24794900000000	83.26160700000000	-14.97087200000000	0.36549300000000	0.00000000000000	0.06115300000000	-65.66657300000000	813.23694699999999	-57.12888800000000	0.12805500000000	0.00000000000000	-0.10846000000000	0.00000000000000	-12.55796300000000	0.00000000000000	0.00000000000000	-26.03390800000000	0.00000000000000	
6.72664500000000	-1.73954900000000	89.85988999999999	-15.37594400000000	0.36975300000000	0.00000000000000	0.06162500000000	-66.47553000000001	810.55927199999996	-56.78003400000000	0.12721900000000	0.00000000000000	-0.10834200000000	0.00000000000000	-12.98260900000000	0.00000000000000	0.00000000000000	-26.02201700000000	0.00000000000000	
6.72830800000000	-1.13065100000000	96.32469100000000	-15.64581500000000	0.37371500000000	0.00000000000000	0.06207100000000	-67.29392300000001	807.70582400000001	-56.40440000000000	0.12639200000000	0.00000000000000	-0.10821900000000	0.00000000000000	-13.29887200000000	0.00000000000000	0.00000000000000	-26.01023600000000	0.00000000000000	
6.72998000000000	-0.42997700000000	102.68992000000000	-15.79506500000000	0.37741200000000	0.00000000000000	0.06249700000000	-68.12059600000001	804.67330200000004	-56.00178600000000	0.12557300000000	0.00000000000000	-0.10809200000000	0.00000000000000	-13.51855900000000	0.00000000000000	0.00000000000000	-25.99838500000000	0.00000000000000	
6.73163900000000	0.35317000000000	108.99869800000000	-15.84025000000000	0.38087200000000	0.00000000000000	0.06290200000000	-68.95428600000000	801.45847600000002	-55.57203200000000	0.12476500000000	0.00000000000000	-0.10796100000000	0.00000000000000	-13.65541700000000	0.00000000000000	0.00000000000000	-25.98626400000000	0.00000000000000	
6.73330900000000	1.20960600000000	115.29852300000000	-15.79839300000000	0.38411800000000	0.00000000000000	0.06329100000000	-69.79362399999999	798.05820400000005	-55.11502500000000	0.12396600000000	0.00000000000000	-0.10782600000000	0.00000000000000	-13.72380900000000	0.00000000000000	0.00000000000000	-25.97365100000000	0.00000000000000	
6.73498100000000	2.13082800000000	121.63689100000001	-15.68568500000000	0.38717100000000	0.00000000000000	0.06366500000000	-70.63713199999999	794.46943799999997	-54.63069300000000	0.12317700000000	0.00000000000000	-0.10768700000000	0.00000000000000	-13.73756200000000	0.00000000000000	0.00000000000000	-25.96029900000000	0.00000000000000	
6.73664500000000	3.10943500000000	128.05767100000000	-15.51648600000000	0.39004800000000	0.00000000000000	0.06402500000000	-71.48323100000000	790.68923800000005	-54.11901600000000	0.12239900000000	0.00000000000000	-0.10754400000000	0.00000000000000	-13.70905700000000	0.00000000000000	0.00000000000000	-25.94594100000000	0.00000000000000	
6.73830700000000	4.13936500000000	134.59835400000000	-15.30263300000000	0.39276400000000	0.00000000000000	0.06437200000000	-72.33023700000000	786.71478600000000	-53.58002200000000	0.12163100000000	0.00000000000000	-0.10739600000000	0.00000000000000	-13.64858500000000	0.00000000000000	0.00000000000000	-25.93029000000000	0.00000000000000	
6.73998300000000	5.21600500000000	141.28824499999999	-15.05306300000000	0.39533100000000	0.00000000000000	0.06470900000000	-73.17636700000000	782.54339500000003	-53.01378900000000	0.12087500000000	0.00000000000000	-0.10724400000000	0.00000000000000	-13.56398300000000	0.00000000000000	0.00000000000000	-25.91303600000000	0.00000000000000	
6.74163900000000	6.33614500000000	148.14756700000001	-14.77372600000000	0.39776100000000	0.00000000000000	0.06503500000000	-74.01974199999999	778.17252699999995	-52.42044900000000	0.12013000000000	0.00000000000000	-0.10708800000000	0.00000000000000	-13.46051200000000	0.00000000000000	0.00000000000000	-25.89385300000000	0.00000000000000	
6.74330700000000	7.49784900000000	155.18737400000001	-14.46773300000000	0.40006200000000	0.00000000000000	0.06535200000000	-74.85839000000000	773.59980199999995	-51.80018700000000	0.11939600000000	0.00000000000000	-0.10692800000000	0.00000000000000	-13.34095700000000	0.00000000000000	0.00000000000000	-25.87239300000000	0.00000000000000	
6.74497400000000	8.70023100000000	162.41013599999999	-14.13569300000000	0.40224300000000	0.00000000000000	0.06566000000000	-75.69025200000000	768.82301800000005	-51.15324600000000	0.11867500000000	0.00000000000000	-0.10676400000000	0.00000000000000	-13.20590000000000	0.00000000000000	0.00000000000000	-25.84829200000000	0.00000000000000	
6.74664300000000	9.94319600000000	169.81082400000000	-13.77617800000000	0.40431200000000	0.00000000000000	0.06596100000000	-76.51318400000000	763.84016499999996	-50.47992100000000	0.11796500000000	0.00000000000000	-0.10659500000000	0.00000000000000	-13.05410300000000	0.00000000000000	0.00000000000000	-25.82117000000000	0.00000000000000	
6.74830900000000	11.22716200000000	177.37832800000001	-13.38625400000000	0.40627400000000	0.00000000000000	0.06625400000000	-77.32496700000000	758.64943700000003	-49.78056700000000	0.11726800000000	0.00000000000000	-0.10642200000000	0.00000000000000	-12.88296800000000	0.00000000000000	0.00000000000000	-25.79063100000000	0.00000000000000	
6.74998100000000	12.55278100000000	185.09703400000001	-12.96203400000000	0.40813400000000	0.00000000000000	0.06654100000000	-78.12330600000000	753.24925499999995	-49.05559700000000	0.11658200000000	0.00000000000000	-0.10624500000000	0.00000000000000	-12.68901400000000	0.00000000000000	0.00000000000000	-25.75626700000000	0.00000000000000	
6.75164600000000	13.92069700000000	192.94842199999999	-12.49919700000000	0.40989800000000	0.00000000000000	0.06682200000000	-78.90584400000000	747.63827700000002	-48.30548100000000	0.11590900000000	0.00000000000000	-0.10606400000000	0.00000000000000	-12.46833200000000	0.00000000000000	0.00000000000000	-25.71765700000000	0.00000000000000	
6.75331200000000	15.33133600000000	200.91255899999999	-11.99345300000000	0.41156900000000	0.00000000000000	0.06709600000000	-79.67016300000000	741.81541500000003	-47.53074900000000	0.11524800000000	0.00000000000000	-0.10587800000000	0.00000000000000	-12.21700200000000	0.00000000000000	0.00000000000000	-25.67436800000000	0.00000000000000	
6.75498900000000	16.78474100000000	208.96939399999999	-11.44092200000000	0.41315000000000	0.00000000000000	0.06736600000000	-80.41379200000000	735.77985400000000	-46.73198800000000	0.11460000000000	0.00000000000000	-0.10568900000000	0.00000000000000	-11.93142600000000	0.00000000000000	0.00000000000000	-25.62596000000000	0.00000000000000	
6.75664000000000	18.28046700000000	217.09981300000001	-10.83842000000000	0.41464500000000	0.00000000000000	0.06763000000000	-81.13421600000000	729.53106300000002	-45.90984500000000	0.11396400000000	0.00000000000000	-0.10549600000000	0.00000000000000	-11.60859300000000	0.00000000000000	0.00000000000000	-25.57198500000000	0.00000000000000	
6.75830900000000	19.81751700000000	225.28640400000000	-10.18364300000000	0.41605700000000	0.00000000000000	0.06788900000000	-81.82888500000000	723.06880899999999	-45.06502400000000	0.11333900000000	0.00000000000000	-0.10529800000000	0.00000000000000	-11.24624400000000	0.00000000000000	0.00000000000000	-25.51199000000000	0.00000000000000	
6.75998200000000	21.39432500000000	233.51395900000000	-9.47526800000000	0.41738600000000	0.00000000000000	0.06814400000000	-82.49521799999999	716.39316699999995	-44.19828800000000	0.11272700000000	0.00000000000000	-0.10509700000000	0.00000000000000	-10.84296800000000	0.00000000000000	0.00000000000000	-25.44551700000000	0.00000000000000	
6.76164700000000	23.00878200000000	241.76970000000000	-8.71295900000000	0.41863600000000	0.00000000000000	0.06839500000000	-83.13061200000000	709.50453400000004	-43.31045700000000	0.11212600000000	0.00000000000000	-0.10489100000000	0.00000000000000	-10.39821600000000	0.00000000000000	0.00000000000000	-25.37211000000000	0.00000000000000	
